<svg width="87" height="87" viewBox="0 0 87 87" fill="none" xmlns="http://www.w3.org/2000/svg">
<rect x="2.5" y="2.5" width="82" height="82" rx="41" fill="black" stroke="#E7B943" stroke-width="5"/>
<path d="M40.78 54.58L56.995 38.365L53.775 35.145L40.78 48.14L34.225 41.585L31.005 44.805L40.78 54.58ZM44 67C40.8183 67 37.8283 66.3959 35.03 65.1876C32.2317 63.9809 29.7975 62.3425 27.7275 60.2725C25.6575 58.2025 24.0191 55.7683 22.8124 52.97C21.6041 50.1717 21 47.1817 21 44C21 40.8183 21.6041 37.8283 22.8124 35.03C24.0191 32.2317 25.6575 29.7975 27.7275 27.7275C29.7975 25.6575 32.2317 24.0184 35.03 22.8101C37.8283 21.6034 40.8183 21 44 21C47.1817 21 50.1717 21.6034 52.97 22.8101C55.7683 24.0184 58.2025 25.6575 60.2725 27.7275C62.3425 29.7975 63.9809 32.2317 65.1876 35.03C66.3959 37.8283 67 40.8183 67 44C67 47.1817 66.3959 50.1717 65.1876 52.97C63.9809 55.7683 62.3425 58.2025 60.2725 60.2725C58.2025 62.3425 55.7683 63.9809 52.97 65.1876C50.1717 66.3959 47.1817 67 44 67Z" fill="#E7B943"/>
</svg>
