<svg width="424" height="405" viewBox="0 0 424 405" fill="none" xmlns="http://www.w3.org/2000/svg">
<path d="M67.164 83.7368L96.8764 194.625C98.6171 201.121 99.013 207.078 98.0641 212.494C97.1562 217.84 95.0544 222.424 91.7587 226.249C88.478 230.129 84.4349 233.403 79.6293 236.071C74.8388 238.796 69.2523 241.013 62.8699 242.723C56.2636 244.493 48.9098 245.713 40.8086 246.383L34.686 223.534L49.2144 219.641L16.4408 97.328L67.164 83.7368Z" fill="black"/>
<path d="M148.171 208.252C136.694 211.327 127.148 210.974 119.534 207.191C111.961 203.338 106.711 195.951 103.785 185.03L82.6264 106.065L130.662 93.1935L154.68 182.828L168.62 179.093L144.603 89.4581L192.639 76.5869L221.901 185.795L178.484 197.428L172.856 188.852C171.592 193.093 168.649 197.002 164.027 200.582C159.391 204.105 154.105 206.662 148.171 208.252Z" fill="black"/>
<path d="M280.415 129.959L280.499 129.937C279.916 129.553 278.58 129.491 276.489 129.751C275.38 129.868 273.437 130.118 270.66 130.502C267.939 130.871 265.8 131.174 264.243 131.411C262.727 131.577 260.805 131.793 258.475 132.057C256.187 132.25 254.066 132.398 252.114 132.501C250.161 132.604 248.285 132.656 246.485 132.658C242.042 132.648 237.873 132.205 233.978 131.328C230.138 130.436 226.446 129.084 222.9 127.273C219.411 125.447 216.402 122.952 213.874 119.787C211.331 116.567 209.474 112.773 208.304 108.405C207.148 104.092 206.609 100.065 206.687 96.3227C206.764 92.5804 207.34 89.2446 208.416 86.3154C209.491 83.3862 211.132 80.6654 213.339 78.1533C215.587 75.57 218.073 73.3134 220.796 71.3832C223.519 69.4531 226.778 67.6194 230.573 65.8823C234.368 64.1451 238.167 62.647 241.97 61.3879C245.758 60.0728 250.059 58.7701 254.874 57.48C258.793 56.4299 262.167 55.5858 264.997 54.9478C267.882 54.2947 271.288 53.6822 275.215 53.1101C279.142 52.538 282.562 52.312 285.474 52.432C288.372 52.496 291.458 52.9295 294.734 53.7325C298.009 54.5356 300.8 55.7687 303.106 57.4318C305.411 59.0949 307.567 61.4286 309.572 64.4328C311.618 67.366 313.189 70.8768 314.284 74.9651C315.32 78.8293 315.922 81.189 316.091 82.0441L270.151 91.6525L266.527 78.1275L252.503 81.8853L257.05 98.8546C257.688 99.2236 259.061 99.3061 261.166 99.1021C262.738 98.9211 265.825 98.574 270.428 98.061C275.016 97.4919 278.925 97.0749 282.154 96.8098C285.383 96.5448 288.411 96.4238 291.238 96.4467C295.569 96.4867 299.611 96.9042 303.364 97.6993C307.159 98.4233 310.814 99.6349 314.329 101.334C317.83 102.977 320.864 105.345 323.433 108.438C325.987 111.476 327.827 115.094 328.953 119.295C330.093 123.551 330.709 127.528 330.799 131.225C330.946 134.907 330.545 138.226 329.597 141.181C328.704 144.122 327.505 146.814 326 149.258C324.551 151.687 322.564 153.9 320.039 155.897C317.513 157.895 314.992 159.681 312.474 161.256C309.94 162.775 306.907 164.218 303.373 165.585C299.839 166.952 296.547 168.104 293.498 169.042C290.464 170.035 286.959 171.064 282.984 172.129C278.281 173.389 274.2 174.393 270.739 175.14C267.279 175.887 263.563 176.462 259.591 176.866C255.634 177.326 252.205 177.405 249.303 177.102C246.443 176.728 243.513 175.982 240.513 174.865C237.514 173.748 234.928 172.16 232.756 170.101C230.625 167.971 228.632 165.234 226.775 161.889C224.919 158.545 223.376 154.577 222.145 149.985C221.8 148.696 221.566 147.709 221.441 147.022L267.426 137.581L271.185 151.61L285.21 147.853L280.415 129.959Z" fill="black"/>
<path d="M412.912 135.244C412.912 135.244 412.752 135.317 412.431 135.463C412.11 135.609 411.649 135.792 411.048 136.013C410.462 136.29 409.765 136.597 408.955 136.934C408.201 137.256 407.307 137.616 406.274 138.013C405.24 138.41 404.171 138.787 403.066 139.143C401.976 139.555 400.767 139.969 399.438 140.385C398.166 140.786 396.886 141.159 395.598 141.504C389.551 143.124 384.328 144.344 379.927 145.163C375.582 145.967 371.414 146.423 367.423 146.532C363.487 146.626 360.142 146.232 357.385 145.35C354.628 144.468 352.088 143.048 349.763 141.09C347.438 139.132 345.469 136.598 343.856 133.489C342.228 130.324 340.806 126.473 339.59 121.937L322.911 59.6881L311.406 62.7709L306.904 45.9697L318.409 42.8869L311.769 18.1051L359.721 5.25644L366.361 30.0382L379.714 26.4604L384.215 43.2616L370.863 46.8395L388.24 111.692C388.705 113.428 389.551 114.792 390.777 115.784C391.988 116.721 393.515 117.272 395.36 117.438C397.205 117.604 399.088 117.579 401.011 117.364C402.974 117.078 405.216 116.597 407.735 115.922L412.912 135.244Z" fill="black"/>
<path d="M63.4449 321.137L75.6227 317.874L61.7739 266.189L49.596 269.452L63.4449 321.137ZM2.75333 264.419L55.8995 250.179C59.466 249.223 62.6525 248.445 65.459 247.844C68.2655 247.243 71.3272 246.749 74.6441 246.364C77.9484 245.931 80.8807 245.799 83.4409 245.969C86.0012 246.138 88.5963 246.625 91.2262 247.43C93.8904 248.175 96.1843 249.321 98.1079 250.869C100.066 252.357 101.862 254.366 103.495 256.897C105.129 259.428 106.411 262.43 107.342 265.904L115.097 294.844C115.852 297.661 116.262 300.318 116.328 302.816C116.428 305.255 116.247 307.492 115.787 309.527C115.361 311.503 114.585 313.396 113.461 315.207C112.371 316.958 111.178 318.51 109.88 319.864C108.583 321.218 106.95 322.536 104.98 323.819C103.01 325.101 101.09 326.195 99.2193 327.098C97.3958 327.989 95.2016 328.904 92.6365 329.843C90.1058 330.723 87.7971 331.492 85.7105 332.152C83.6582 332.752 81.2477 333.423 78.479 334.165L67.7793 337.032L75.3641 365.339L32.8472 376.731L2.75333 264.419Z" fill="black"/>
<path d="M165.351 343.491C155.731 346.069 147.729 345.773 141.347 342.602C134.999 339.372 130.599 333.18 128.146 324.027L110.411 257.836L150.675 247.048L170.807 322.18L182.492 319.049L162.36 243.917L202.624 233.128L227.152 324.667L190.76 334.419L186.042 327.23C184.982 330.784 182.516 334.062 178.642 337.062C174.756 340.015 170.325 342.158 165.351 343.491Z" fill="black"/>
<path d="M276.2 277.865L276.27 277.846C275.782 277.524 274.661 277.472 272.909 277.69C271.979 277.788 270.351 277.998 268.023 278.32C265.742 278.63 263.949 278.884 262.644 279.082C261.374 279.222 259.762 279.402 257.809 279.623C255.891 279.785 254.114 279.909 252.477 279.995C250.84 280.082 249.268 280.126 247.759 280.127C244.035 280.119 240.54 279.747 237.275 279.012C234.057 278.264 230.962 277.131 227.99 275.613C225.065 274.083 222.543 271.991 220.424 269.339C218.292 266.64 216.736 263.459 215.755 259.798C214.786 256.183 214.335 252.807 214.399 249.67C214.464 246.534 214.947 243.738 215.849 241.282C216.75 238.827 218.126 236.546 219.976 234.441C221.86 232.275 223.944 230.384 226.226 228.766C228.509 227.148 231.24 225.611 234.421 224.155C237.602 222.699 240.787 221.443 243.974 220.388C247.15 219.285 250.755 218.193 254.791 217.112C258.076 216.232 260.904 215.524 263.276 214.99C265.694 214.442 268.549 213.929 271.841 213.449C275.133 212.97 277.999 212.78 280.44 212.881C282.869 212.934 285.456 213.298 288.202 213.971C290.947 214.644 293.286 215.678 295.219 217.072C297.152 218.466 298.959 220.422 300.639 222.94C302.354 225.399 303.671 228.341 304.589 231.768C305.457 235.007 305.962 236.985 306.104 237.702L267.596 245.756L264.559 234.419L252.803 237.569L256.614 251.793C257.15 252.102 258.3 252.171 260.065 252C261.382 251.849 263.97 251.558 267.828 251.128C271.674 250.651 274.95 250.301 277.657 250.079C280.364 249.857 282.902 249.755 285.271 249.775C288.902 249.808 292.29 250.158 295.436 250.824C298.616 251.431 301.68 252.447 304.627 253.871C307.561 255.248 310.105 257.233 312.258 259.826C314.399 262.372 315.941 265.405 316.884 268.926C317.84 272.494 318.356 275.827 318.432 278.926C318.555 282.013 318.219 284.794 317.424 287.272C316.676 289.736 315.671 291.993 314.41 294.042C313.195 296.078 311.529 297.933 309.413 299.607C307.296 301.281 305.182 302.778 303.071 304.098C300.948 305.372 298.405 306.581 295.443 307.727C292.481 308.873 289.722 309.839 287.166 310.624C284.622 311.457 281.685 312.319 278.353 313.212C274.411 314.268 270.99 315.11 268.089 315.736C265.189 316.362 262.074 316.845 258.745 317.183C255.428 317.569 252.553 317.635 250.121 317.381C247.724 317.067 245.268 316.442 242.753 315.506C240.239 314.57 238.072 313.238 236.251 311.512C234.465 309.727 232.794 307.433 231.238 304.629C229.682 301.826 228.389 298.5 227.357 294.651C227.068 293.571 226.871 292.743 226.767 292.167L265.312 284.254L268.463 296.013L280.219 292.864L276.2 277.865Z" fill="black"/>
<path d="M368.215 186.72C387.784 181.477 399.971 187.821 404.776 205.753L422.606 272.296L382.412 283.065L361.563 205.257L349.808 208.407L370.657 286.215L330.463 296.985L297.806 176.803L338 166.033L347.827 201.013C349.047 197.869 351.532 195.039 355.285 192.524C359.025 189.963 363.335 188.028 368.215 186.72Z" fill="black"/>
<path d="M281.226 400.802C278.646 399.428 276.899 397.038 275.987 393.632C275.074 390.226 275.396 387.3 276.953 384.854C278.534 382.365 280.753 380.738 283.608 379.974C286.463 379.209 289.18 379.513 291.76 380.887C294.365 382.217 296.124 384.585 297.037 387.992C297.95 391.398 297.615 394.346 296.033 396.835C294.477 399.28 292.271 400.885 289.416 401.65C286.561 402.415 283.831 402.133 281.226 400.802Z" fill="black"/>
<path d="M307.364 394.684L289.438 327.575L314.512 320.857L318.661 327.877C319.067 324.854 320.589 322.142 323.227 319.739C325.864 317.336 329.198 315.539 333.229 314.348L338.456 333.857L324.475 340.701L336.824 386.79L307.364 394.684Z" fill="black"/>
<path d="M375.797 378.007C368.745 379.896 362.881 379.679 358.203 377.355C353.55 374.988 350.325 370.449 348.527 363.74L335.528 315.226L365.04 307.318L379.796 362.387L388.36 360.092L373.605 305.023L403.117 297.115L421.094 364.21L394.42 371.357L390.962 366.088C390.186 368.693 388.378 371.095 385.538 373.294C382.69 375.459 379.443 377.03 375.797 378.007Z" fill="black"/>
</svg>
