<svg version="1.2" xmlns="http://www.w3.org/2000/svg" width="2019" height="750"><path d="m92.7 454.4 54 201.4q4.7 17.7 2.1 32.5-2.4 14.5-11.4 25t-22.1 17.8q-13 7.4-30.4 12.1-18 4.8-40.1 6.6l-11.1-41.5 26.4-7L.6 479.1zM239.8 680.6q-31.2 8.3-52-2-20.6-10.5-28.6-40.2L120.8 495l87.2-23.4 43.7 162.8 25.3-6.8-43.6-162.8 87.2-23.4 53.1 198.4-78.8 21.1-10.2-15.6q-3.5 11.6-16.1 21.3-12.6 9.6-28.8 14zM480 538.4l.2-.1q-1.6-1-7.3-.3-3 .3-10.6 1.4-7.4 1-11.7 1.6-4.1.5-10.4 1.2-6.3.5-11.6.8-5.3.3-10.2.3-12.1-.1-22.7-2.4-10.5-2.5-20.1-7.4-9.5-5-16.4-13.6-7-8.8-10.2-20.7-3.1-11.7-2.9-21.9.2-10.2 3.2-18.2 2.9-8 8.9-14.8 6.1-7.1 13.5-12.3 7.5-5.3 17.8-10t20.7-8.2q10.3-3.6 23.4-7.1 10.7-2.8 18.4-4.6 7.9-1.8 18.6-3.3 10.7-1.6 18.6-1.2 7.9.1 16.8 2.3 9 2.2 15.2 6.7 6.3 4.6 11.8 12.8 5.6 7.9 8.5 19.1 2.9 10.5 3.3 12.8l-83.4 17.5-6.6-24.6-25.5 6.9 8.3 30.8q1.7 1 7.5.4 4.2-.5 16.8-1.9 12.5-1.5 21.3-2.2 8.8-.8 16.5-.7 11.8.1 22 2.3 10.3 1.9 19.9 6.6 9.6 4.5 16.6 12.9 6.9 8.3 10 19.7 3.1 11.6 3.3 21.7.4 10-2.2 18.1-2.4 8-6.5 14.6-3.9 6.6-10.8 12.1-6.9 5.4-13.8 9.7-6.9 4.1-16.5 7.9-9.6 3.7-17.9 6.3-8.3 2.7-19.1 5.6-12.8 3.4-22.3 5.4-9.4 2.1-20.2 3.2-10.8 1.2-18.7.4-7.8-1-15.9-4.1-8.2-3-14.1-8.6-5.8-5.8-10.9-14.9-5.1-9.1-8.4-21.7-1-3.5-1.3-5.3l83.5-17.2 6.9 25.5 25.4-6.8zM720.7 548l-.9.4q-.9.4-2.5 1-1.6.7-3.8 1.6-2.1.9-4.9 2-2.8 1.1-5.8 2-3 1.2-6.6 2.3-3.5 1.1-7 2-16.5 4.5-28.4 6.7-11.9 2.2-22.8 2.5-10.7.2-18.2-2.2-7.5-2.4-13.8-7.7-6.4-5.3-10.8-13.8-4.4-8.6-7.7-21l-30.3-113.1-20.9 5.6-8.2-30.5 20.9-5.6-12-45 87.1-23.3 12 45 24.3-6.5 8.1 30.5-24.2 6.5 31.6 117.8q1.2 4.7 4.6 7.4 3.3 2.6 8.3 3 5 .5 10.3-.1 5.3-.8 12.2-2.6z"/><path fill-rule="evenodd" d="m664.1 301.2 115.1-30.9q11.6-3.1 20.7-5.1 9.2-1.9 19.9-3.2 10.8-1.4 19.1-.8 8.3.5 16.9 3.1 8.6 2.5 14.9 7.5 6.4 4.8 11.7 13.1 5.3 8.2 8.3 19.5l16.8 62.7q2.5 9.1 2.7 17.3.3 7.9-1.2 14.5-1.4 6.4-5 12.3-3.6 5.7-7.8 10.1-4.2 4.4-10.6 8.6-6.4 4.1-12.5 7.1-5.9 2.9-14.3 5.9-8.2 2.9-15 5-6.6 2-15.6 4.4l-23.2 6.2 16.4 61.3-92.1 24.7zm131.5 122.9L822 417l-30-112-26.4 7.1z"/><path d="M1016.4 472.5q-31.3 8.4-52-1.9-20.7-10.5-28.6-40.3l-38.5-143.4 87.3-23.4 43.6 162.8 25.3-6.8-43.6-162.8 87.3-23.3 53.1 198.3-78.8 21.1-10.3-15.5q-3.4 11.5-16 21.3-12.6 9.6-28.8 13.9zM1256.6 330.3l.1-.1q-1.6-1-7.2-.3-3.1.3-10.6 1.4-7.5 1-11.7 1.6-4.1.5-10.5 1.2-6.2.5-11.5.8-5.3.3-10.2.3-12.2 0-22.8-2.4-10.4-2.5-20.1-7.4-9.5-5-16.4-13.6-6.9-8.8-10.1-20.7-3.1-11.7-2.9-21.9.2-10.2 3.1-18.2t9-14.8q6.1-7 13.5-12.3 7.4-5.3 17.8-10 10.3-4.7 20.7-8.2 10.3-3.5 23.4-7.1 10.7-2.8 18.4-4.5 7.8-1.8 18.5-3.4 10.7-1.5 18.7-1.2 7.9.2 16.8 2.3 8.9 2.2 15.2 6.8 6.3 4.5 11.7 12.7 5.6 8 8.6 19.1 2.8 10.5 3.3 12.9l-83.5 17.4-6.5-24.5-25.5 6.8 8.2 30.8q1.8 1 7.5.4 4.3-.4 16.8-1.8 12.5-1.6 21.3-2.3 8.8-.7 16.5-.7 11.8.1 22.1 2.3 10.3 2 19.9 6.6 9.5 4.5 16.5 12.9 7 8.3 10 19.7 3.1 11.6 3.4 21.7.4 10-2.2 18.1-2.4 8-6.5 14.6-4 6.7-10.8 12.1-6.9 5.4-13.8 9.7-6.9 4.2-16.5 7.9t-18 6.3q-8.2 2.7-19 5.6-12.9 3.4-22.3 5.5-9.4 2-20.2 3.1-10.8 1.2-18.7.4-7.8-1-16-4-8.2-3.1-14.1-8.7-5.8-5.8-10.8-14.9-5.1-9.1-8.4-21.6-1-3.5-1.3-5.4l83.5-17.2 6.8 25.5 25.5-6.8zM1456 132.8q63.6-17 79.2 41.2l38.6 144.2-87.1 23.4-45.2-168.6-25.4 6.8 45.1 168.6-87 23.3-76.3-286.9 87.1-23.3 26.8 102.3q3.9-10.3 16.1-18.4 12.2-8.4 28.1-12.6zM1604.9 307.3q-11.4-6.1-15.5-21.2-4-15.1 2.9-26 7-11 19.7-14.4 12.6-3.4 24.1 2.7 11.5 5.9 15.6 21 4 15.1-3 26.1-6.9 10.9-19.6 14.3-12.6 3.4-24.2-2.5zM1682.2 289.2l-53-198.4 74.1-19.9 12.3 20.8q1.8-13.4 13.5-24.1 11.7-10.6 29.6-15.9l15.4 57.7-41.3 20.2 36.5 136.2zM1884.5 239.9q-31.3 8.4-52-1.9-20.6-10.5-28.6-40.3l-38.4-143.4 87.2-23.4 43.6 162.8 25.4-6.8L1878 24.1 1965.3.7l53.1 198.4-78.8 21.1-10.3-15.6q-3.4 11.6-16 21.3-12.6 9.6-28.8 14z"/></svg>