<svg width="59" height="53" viewBox="0 0 59 53" fill="none" xmlns="http://www.w3.org/2000/svg">
<path d="M47.581 27.7028C47.0864 28.176 47.0658 28.9642 47.5633 29.4343C48.2449 30.0784 48.9645 30.6808 49.7182 31.2382C50.2683 31.6452 51.0382 31.4843 51.4144 30.9119C51.7906 30.3396 51.6302 29.5729 51.0826 29.1625C50.482 28.7124 49.906 28.2302 49.3572 27.718C48.8567 27.251 48.0756 27.2296 47.581 27.7028Z" fill="black"/>
<path d="M53.1115 30.2915C52.6173 30.7651 52.5974 31.5534 53.0954 32.023C53.7845 32.6731 54.5125 33.2806 55.2751 33.8421C55.8262 34.2478 56.5957 34.0853 56.9706 33.5121C57.3456 32.939 57.1836 32.1726 56.6351 31.7634C56.0266 31.3095 55.4433 30.8226 54.8876 30.3051C54.3868 29.8385 53.6056 29.8179 53.1115 30.2915Z" fill="black"/>
<path d="M3.07942 33.501C2.44337 33.7435 1.72897 33.4239 1.51378 32.7767C0.0663547 28.4232 -0.35076 23.7913 0.295516 19.2484C0.391602 18.5729 1.03734 18.1302 1.70644 18.2546C2.37554 18.3791 2.81438 19.0236 2.72086 19.6994C2.15395 23.796 2.52972 27.9688 3.81933 31.8974C4.03207 32.5455 3.71546 33.2584 3.07942 33.501Z" fill="black"/>
<path d="M2.19692 16.1216C1.53414 15.9444 1.13761 15.2611 1.34217 14.6046C1.5323 13.9944 1.74212 13.3906 1.97129 12.7941C2.21784 12.1523 2.95202 11.8639 3.5812 12.1379C4.21038 12.4119 4.49605 13.1444 4.25198 13.7871C4.06904 14.2689 3.89985 14.7558 3.74462 15.2473C3.53753 15.9029 2.85971 16.2989 2.19692 16.1216Z" fill="#FF0000"/>
<path d="M53.7454 37.9755C54.3341 38.3288 54.5278 39.0954 54.1509 39.6702C51.4593 43.7754 47.7859 47.1496 43.4574 49.4802C38.7636 52.0075 33.4747 53.2131 28.1524 52.9691C22.8301 52.7251 17.673 51.0405 13.2289 48.0943C9.13061 45.3774 5.77969 41.6811 3.47301 37.3467C3.15004 36.7398 3.41273 35.9942 4.03112 35.6962C4.64952 35.3983 5.38922 35.6609 5.71453 36.2665C7.82525 40.196 10.8754 43.5477 14.5993 46.0165C18.6691 48.7146 23.3918 50.2573 28.2659 50.4807C33.1399 50.7042 37.9834 49.6001 42.2819 47.2857C46.215 45.168 49.5575 42.1093 52.0171 38.3894C52.3962 37.8161 53.1567 37.6222 53.7454 37.9755Z" fill="black"/>
<path d="M55.2568 11.7666C55.8811 11.4841 56.6183 11.7616 56.8736 12.3988C58.2175 15.7524 58.9381 19.3281 58.9962 22.9488C59.0542 26.5695 58.4486 30.1665 57.2129 33.5617C56.9781 34.2068 56.2503 34.5079 55.6172 34.2456C54.9842 33.9833 54.686 33.257 54.9183 32.611C56.0261 29.5302 56.5687 26.2701 56.5161 22.9887C56.4634 19.7074 55.8166 16.4665 54.6106 13.4229C54.3578 12.7847 54.6325 12.0492 55.2568 11.7666Z" fill="black"/>
<path d="M48.627 34.576C49.2179 34.9205 49.4211 35.6823 49.0466 36.2558C46.3777 40.3425 42.4939 43.5 37.9306 45.2701C32.9816 47.1899 27.5283 47.3633 22.4678 45.7621C17.4074 44.1608 13.0414 40.8802 10.0883 36.46C7.13515 32.0398 5.77081 26.7434 6.21978 21.4423C6.66874 16.1412 8.90426 11.1513 12.5585 7.2936C16.2127 3.43589 21.0679 0.940245 26.3252 0.217311C31.5824 -0.505623 36.9286 0.587228 41.4839 3.31604C45.6841 5.83218 48.9813 9.601 50.9247 14.0804C51.1974 14.7089 50.869 15.4255 50.2286 15.6652C49.5881 15.905 48.8784 15.5769 48.6018 14.9501C46.8577 10.9982 43.9315 7.67369 40.214 5.44675C36.1414 3.00709 31.3618 2.03004 26.6616 2.67637C21.9614 3.3227 17.6206 5.5539 14.3536 9.00284C11.0866 12.4518 9.08801 16.913 8.68661 21.6523C8.28522 26.3917 9.50499 31.1268 12.1452 35.0787C14.7854 39.0305 18.6888 41.9635 23.213 43.3951C27.7372 44.8267 32.6127 44.6716 37.0373 42.9553C41.0761 41.3886 44.5195 38.6064 46.9032 35.0059C47.2813 34.4348 48.036 34.2314 48.627 34.576Z" fill="black"/>
<path d="M41.4254 12.6957C41.9209 12.25 42.6867 12.2889 43.0955 12.8156C45.5541 15.9824 46.8441 19.9213 46.7198 23.9575C46.5954 27.9937 45.0654 31.8452 42.4165 34.8539C41.976 35.3543 41.2093 35.3457 40.7422 34.8702C40.2751 34.3946 40.2853 33.6325 40.7201 33.1271C42.93 30.5586 44.205 27.2976 44.3103 23.8829C44.4155 20.4682 43.3437 17.1345 41.296 14.4341C40.8932 13.9028 40.9299 13.1415 41.4254 12.6957Z" fill="black"/>
<path d="M51.2785 19.5075C51.9515 19.3865 52.5982 19.8351 52.6831 20.5152C53.1147 23.9724 52.7716 27.483 51.6787 30.7903C51.4637 31.441 50.7423 31.7551 50.1057 31.5054C49.469 31.2558 49.1585 30.5368 49.3694 29.8848C50.3006 27.0062 50.5985 23.9591 50.2425 20.954C50.1618 20.2734 50.6056 19.6286 51.2785 19.5075Z" fill="black"/>
<path d="M20.4638 28.8365L19.5438 19.9637H21.5737L22.4937 28.8365H20.4638Z" fill="black"/>
<path d="M23.7914 28.8365L22.7765 19.9637H24.8064L25.5549 26.4415L28.0796 24.5428V2.53057L28.4551 2.50832L29.0897 2.48613L29.6231 2.48245L30.1095 2.491L30.1095 24.5552L32.6089 26.4415L33.3701 19.9637H35.4L34.385 28.8365H32.685L29.0946 25.9947L25.4915 28.8365H23.7914Z" fill="black"/>
</svg>
