<svg width="87" height="87" fill="none" xmlns="http://www.w3.org/2000/svg"><rect x="2.5" y="2.5" width="82" height="82" rx="41" fill="#000" stroke="#E7B943" stroke-width="5"/><path d="M40.78 54.58l16.215-16.215-3.22-3.22L40.78 48.14l-6.555-6.555-3.22 3.22 9.775 9.775zM44 67c-3.182 0-6.172-.604-8.97-1.812-2.798-1.207-5.233-2.846-7.303-4.916-2.07-2.07-3.708-4.504-4.915-7.302C21.604 50.172 21 47.182 21 44c0-3.182.604-6.172 1.812-8.97 1.207-2.798 2.845-5.233 4.915-7.303 2.07-2.07 4.505-3.709 7.303-4.917C37.828 21.603 40.818 21 44 21c3.182 0 6.172.603 8.97 1.81 2.798 1.208 5.233 2.848 7.303 4.918 2.07 2.07 3.708 4.504 4.915 7.302C66.396 37.828 67 40.818 67 44c0 3.182-.604 6.172-1.812 8.97-1.207 2.798-2.846 5.233-4.916 7.303-2.07 2.07-4.504 3.708-7.302 4.915C50.172 66.396 47.182 67 44 67z" fill="#E7B943"/></svg>