<svg width="424" height="405" fill="none" xmlns="http://www.w3.org/2000/svg"><path d="M67.164 83.737l29.712 110.888c1.741 6.496 2.137 12.453 1.188 17.869-.908 5.346-3.01 9.93-6.305 13.755-3.281 3.88-7.324 7.154-12.13 9.822-4.79 2.725-10.377 4.942-16.76 6.652-6.605 1.77-13.96 2.99-22.06 3.66l-6.123-22.849 14.528-3.893L16.441 97.328l50.723-13.591zm81.007 124.515c-11.477 3.075-21.023 2.722-28.637-1.061-7.573-3.853-12.823-11.24-15.749-22.161l-21.159-78.965 48.036-12.871 24.018 89.634 13.94-3.735-24.017-89.635 48.036-12.871 29.262 109.208-43.417 11.633-5.628-8.576c-1.264 4.241-4.207 8.15-8.829 11.73-4.636 3.523-9.922 6.08-15.856 7.67zm132.244-78.293l.084-.022c-.583-.384-1.919-.446-4.01-.186-1.109.117-3.052.367-5.829.751-2.721.369-4.86.672-6.417.909-1.516.166-3.438.382-5.768.646-2.288.193-4.409.341-6.361.444-1.953.103-3.829.155-5.629.157-4.443-.01-8.612-.453-12.507-1.33a48.298 48.298 0 01-11.078-4.055c-3.489-1.826-6.498-4.321-9.026-7.486-2.543-3.22-4.4-7.014-5.57-11.382-1.156-4.313-1.695-8.34-1.617-12.082.077-3.743.653-7.078 1.729-10.008 1.075-2.929 2.716-5.65 4.923-8.162a42.267 42.267 0 017.457-6.77c2.723-1.93 5.982-3.764 9.777-5.5a111.822 111.822 0 0111.397-4.495c3.788-1.315 8.089-2.618 12.904-3.908 3.919-1.05 7.293-1.894 10.123-2.532 2.885-.653 6.291-1.266 10.218-1.838 3.927-.572 7.347-.798 10.259-.678 2.898.064 5.984.497 9.26 1.3 3.275.804 6.066 2.037 8.372 3.7 2.305 1.663 4.461 3.997 6.466 7 2.046 2.934 3.617 6.445 4.712 10.533 1.036 3.864 1.638 6.224 1.807 7.08l-45.94 9.608-3.624-13.526-14.024 3.758 4.547 16.97c.638.369 2.011.451 4.116.247 1.572-.18 4.659-.528 9.262-1.041 4.588-.57 8.497-.986 11.726-1.251 3.229-.265 6.257-.386 9.084-.363 4.331.04 8.373.457 12.126 1.252a44.07 44.07 0 0110.965 3.635c3.501 1.643 6.535 4.011 9.104 7.104 2.554 3.038 4.394 6.656 5.52 10.857 1.14 4.256 1.756 8.233 1.846 11.93.147 3.682-.254 7.001-1.202 9.956-.893 2.941-2.092 5.633-3.597 8.077-1.449 2.429-3.436 4.642-5.961 6.639a84.157 84.157 0 01-7.565 5.359c-2.534 1.519-5.567 2.962-9.101 4.329-3.534 1.367-6.826 2.519-9.875 3.457-3.034.993-6.539 2.022-10.514 3.087-4.703 1.26-8.784 2.264-12.245 3.011-3.46.747-7.176 1.322-11.148 1.726-3.957.46-7.386.539-10.288.236-2.86-.374-5.79-1.12-8.79-2.237-2.999-1.117-5.585-2.705-7.757-4.764-2.131-2.13-4.124-4.867-5.981-8.212-1.856-3.344-3.399-7.312-4.63-11.904-.345-1.289-.579-2.276-.704-2.963l45.985-9.441 3.759 14.029 14.025-3.757-4.795-17.894zm132.497 5.285l-.481.219c-.321.146-.782.329-1.383.55a49.1 49.1 0 01-2.093.921c-.754.322-1.648.682-2.681 1.079a61.938 61.938 0 01-3.208 1.13c-1.09.412-2.299.826-3.628 1.242a91.573 91.573 0 01-3.84 1.119c-6.047 1.62-11.27 2.84-15.671 3.659-4.345.804-8.513 1.26-12.504 1.369-3.936.094-7.281-.3-10.038-1.182-2.757-.882-5.297-2.302-7.622-4.26-2.325-1.958-4.294-4.492-5.907-7.601-1.628-3.165-3.05-7.016-4.266-11.552l-16.679-62.249-11.505 3.083-4.502-16.801 11.505-3.083-6.64-24.782 47.952-12.849 6.64 24.782 13.353-3.578 4.501 16.802-13.352 3.578 17.377 64.852c.465 1.736 1.311 3.1 2.537 4.092 1.211.937 2.738 1.488 4.583 1.654 1.845.166 3.728.141 5.651-.074 1.963-.286 4.205-.767 6.724-1.442l5.177 19.322zM63.445 321.137l12.178-3.263-13.85-51.685-12.177 3.263 13.849 51.685zM2.753 264.419l53.147-14.24c3.566-.956 6.753-1.734 9.559-2.335 2.806-.601 5.868-1.095 9.185-1.48 3.304-.433 6.237-.565 8.797-.395 2.56.169 5.155.656 7.785 1.461 2.664.745 4.958 1.891 6.882 3.439 1.958 1.488 3.754 3.497 5.387 6.028 1.634 2.531 2.916 5.533 3.847 9.007l7.755 28.94c.755 2.817 1.165 5.474 1.231 7.972.1 2.439-.081 4.676-.541 6.711-.426 1.976-1.202 3.869-2.326 5.68-1.09 1.751-2.283 3.303-3.581 4.657-1.297 1.354-2.93 2.672-4.9 3.955-1.97 1.282-3.89 2.376-5.76 3.279-1.824.891-4.018 1.806-6.584 2.745-2.53.88-4.839 1.649-6.925 2.309-2.053.6-4.463 1.271-7.232 2.013l-10.7 2.867 7.585 28.307-42.517 11.392L2.753 264.419zm162.598 79.072c-9.62 2.578-17.622 2.282-24.004-.889-6.348-3.23-10.748-9.422-13.201-18.575l-17.735-66.191 40.264-10.788 20.132 75.132 11.685-3.131-20.132-75.132 40.264-10.789 24.528 91.539-36.392 9.752-4.718-7.189c-1.06 3.554-3.526 6.832-7.4 9.832-3.886 2.953-8.317 5.096-13.291 6.429zM276.2 277.865l.07-.019c-.488-.322-1.609-.374-3.361-.156-.93.098-2.558.308-4.886.63-2.281.31-4.074.564-5.379.762-1.27.14-2.882.32-4.835.541-1.918.162-3.695.286-5.332.372a90.109 90.109 0 01-4.718.132c-3.724-.008-7.219-.38-10.484-1.115a40.501 40.501 0 01-9.285-3.399c-2.925-1.53-5.447-3.622-7.566-6.274-2.132-2.699-3.688-5.88-4.669-9.541-.969-3.615-1.42-6.991-1.356-10.128.065-3.136.548-5.932 1.45-8.388.901-2.455 2.277-4.736 4.127-6.841a35.41 35.41 0 016.25-5.675c2.283-1.618 5.014-3.155 8.195-4.611a93.732 93.732 0 019.553-3.767c3.176-1.103 6.781-2.195 10.817-3.276 3.285-.88 6.113-1.588 8.485-2.122 2.418-.548 5.273-1.061 8.565-1.541 3.292-.479 6.158-.669 8.599-.568 2.429.053 5.016.417 7.762 1.09 2.745.673 5.084 1.707 7.017 3.101 1.933 1.394 3.74 3.35 5.42 5.868 1.715 2.459 3.032 5.401 3.95 8.828.868 3.239 1.373 5.217 1.515 5.934l-38.508 8.054-3.037-11.337-11.756 3.15 3.811 14.224c.536.309 1.686.378 3.451.207 1.317-.151 3.905-.442 7.763-.872 3.846-.477 7.122-.827 9.829-1.049a84.715 84.715 0 017.614-.304c3.631.033 7.019.383 10.165 1.049a36.978 36.978 0 019.191 3.047c2.934 1.377 5.478 3.362 7.631 5.955 2.141 2.546 3.683 5.579 4.626 9.1.956 3.568 1.472 6.901 1.548 10 .123 3.087-.213 5.868-1.008 8.346-.748 2.464-1.753 4.721-3.014 6.77-1.215 2.036-2.881 3.891-4.997 5.565a70.55 70.55 0 01-6.342 4.491c-2.123 1.274-4.666 2.483-7.628 3.629-2.962 1.146-5.721 2.112-8.277 2.897-2.544.833-5.481 1.695-8.813 2.588-3.942 1.056-7.363 1.898-10.264 2.524-2.9.626-6.015 1.109-9.344 1.447-3.317.386-6.192.452-8.624.198-2.397-.314-4.853-.939-7.368-1.875-2.514-.936-4.681-2.268-6.502-3.994-1.786-1.785-3.457-4.079-5.013-6.883-1.556-2.803-2.849-6.129-3.881-9.978-.289-1.08-.486-1.908-.59-2.484l38.545-7.913 3.151 11.759 11.756-3.149-4.019-14.999zm92.015-91.145c19.569-5.243 31.756 1.101 36.561 19.033l17.83 66.543-40.194 10.769-20.849-77.808-11.755 3.15 20.849 77.808-40.194 10.77-32.657-120.182L338 166.033l9.827 34.98c1.22-3.144 3.705-5.974 7.458-8.489 3.74-2.561 8.05-4.496 12.93-5.804zm-86.989 214.082c-2.58-1.374-4.327-3.764-5.239-7.17-.913-3.406-.591-6.332.966-8.778 1.581-2.489 3.8-4.116 6.655-4.88 2.855-.765 5.572-.461 8.152.913 2.605 1.33 4.364 3.698 5.277 7.105.913 3.406.578 6.354-1.004 8.843-1.556 2.445-3.762 4.05-6.617 4.815-2.855.765-5.585.483-8.19-.848zm26.138-6.118l-17.926-67.109 25.074-6.718 4.149 7.02c.406-3.023 1.928-5.735 4.566-8.138 2.637-2.403 5.971-4.2 10.002-5.391l5.227 19.509-13.981 6.844 12.349 46.089-29.46 7.894zm68.433-16.677c-7.052 1.889-12.916 1.672-17.594-.652-4.653-2.367-7.878-6.906-9.676-13.615l-12.999-48.514 29.512-7.908 14.756 55.069 8.564-2.295-14.755-55.069 29.512-7.908 17.977 67.095-26.674 7.147-3.458-5.269c-.776 2.605-2.584 5.007-5.424 7.206-2.848 2.165-6.095 3.736-9.741 4.713z" fill="#000"/></svg>