<svg width="59" height="53" fill="none" xmlns="http://www.w3.org/2000/svg"><path d="M47.581 27.703c-.495.473-.515 1.261-.018 1.731a23.367 23.367 0 002.155 1.804c.55.407 1.32.246 1.696-.326.377-.572.216-1.34-.331-1.75a20.876 20.876 0 01-1.726-1.444c-.5-.467-1.281-.488-1.776-.015zm5.53 2.588c-.494.474-.514 1.262-.016 1.732a23.36 23.36 0 002.18 1.82c.551.405 1.32.242 1.696-.33.375-.574.213-1.34-.336-1.75a20.906 20.906 0 01-1.747-1.458c-.501-.466-1.282-.487-1.776-.014zM3.08 33.501a1.192 1.192 0 01-1.566-.724A29.648 29.648 0 01.296 19.248a1.193 1.193 0 011.41-.993c.67.124 1.108.769 1.015 1.444a27.172 27.172 0 001.098 12.198c.213.648-.104 1.361-.74 1.604z" fill="#000"/><path d="M2.197 16.122a1.206 1.206 0 01-.855-1.517c.19-.61.4-1.214.63-1.81.246-.643.98-.931 1.61-.657.628.274.914 1.006.67 1.65-.183.48-.352.968-.507 1.46-.207.655-.885 1.05-1.548.874z" fill="red"/><path d="M53.745 37.975c.59.354.783 1.12.406 1.695a29.528 29.528 0 01-10.694 9.81 29.438 29.438 0 01-30.228-1.386 29.548 29.548 0 01-9.756-10.747 1.207 1.207 0 01.558-1.65c.619-.299 1.358-.036 1.684.57a27.06 27.06 0 008.884 9.75 26.959 26.959 0 0027.683 1.27 27.041 27.041 0 009.735-8.898c.38-.573 1.14-.767 1.728-.414zm1.512-26.208a1.2 1.2 0 011.617.632 29.642 29.642 0 01.339 21.163 1.2 1.2 0 01-1.596.684c-.633-.263-.931-.989-.699-1.635a27.152 27.152 0 00-.307-19.188c-.253-.638.022-1.374.646-1.656z" fill="#000"/><path d="M48.627 34.576c.59.344.794 1.106.42 1.68A23.376 23.376 0 0137.93 45.27a23.308 23.308 0 01-15.463.492 23.37 23.37 0 01-12.38-9.302 23.47 23.47 0 012.47-29.166 23.314 23.314 0 0128.925-3.978 23.406 23.406 0 019.442 10.764c.272.629-.056 1.345-.696 1.585-.64.24-1.35-.088-1.627-.715a20.925 20.925 0 00-8.388-9.503 20.844 20.844 0 00-25.86 3.556 20.983 20.983 0 00-2.208 26.076 20.894 20.894 0 0011.067 8.316 20.838 20.838 0 0013.824-.44 20.899 20.899 0 009.866-7.95c.378-.57 1.133-.774 1.724-.429z" fill="#000"/><path d="M41.425 12.696c.496-.446 1.262-.407 1.67.12a17.302 17.302 0 01-.678 22.038c-.441.5-1.208.492-1.675.016-.467-.475-.457-1.237-.022-1.743a14.881 14.881 0 00.576-18.693c-.403-.531-.366-1.292.13-1.738zm9.854 6.812c.672-.121 1.32.327 1.404 1.007A23.48 23.48 0 0151.68 30.79c-.215.651-.937.965-1.573.715-.637-.25-.948-.968-.737-1.62a20.994 20.994 0 00.873-8.931c-.08-.68.364-1.325 1.037-1.447zm-30.815 9.329l-.92-8.873h2.03l.92 8.873h-2.03zm3.327 0l-1.015-8.873h2.03l.749 6.478 2.525-1.9V2.532l.375-.023.635-.022.533-.004.486.009v22.064l2.5 1.887.761-6.478h2.03l-1.015 8.873h-1.7l-3.59-2.842-3.604 2.841h-1.7z" fill="#000"/></svg>